<svg width="419" height="125" xmlns="http://www.w3.org/2000/svg" xmlns:xlink="http://www.w3.org/1999/xlink" xml:space="preserve" overflow="hidden"><g transform="translate(-389 -140)"><g><g><g><path d="M214.669 74.5502C204.624 74.5502 196.184 67.6799 193.791 58.3827L169.083 58.3827C163.815 58.3827 159.318 62.1919 158.452 67.3889L157.566 72.7053C156.725 77.7523 154.172 82.1444 150.561 85.3285 154.172 88.5126 156.725 92.9048 157.566 97.9518L158.452 103.268C159.318 108.465 163.815 112.274 169.083 112.274L172.234 112.274C174.627 102.977 183.067 96.1069 193.112 96.1069 205.018 96.1069 214.669 105.758 214.669 117.664 214.669 129.569 205.018 139.22 193.112 139.22 183.067 139.22 174.627 132.35 172.234 123.053L169.083 123.053C158.546 123.053 149.553 115.434 147.82 105.04L146.934 99.7239C146.068 94.5269 141.572 90.7177 136.303 90.7177L127.763 90.7177C125.37 100.015 116.93 106.885 106.885 106.885 96.8407 106.885 88.4003 100.015 86.0076 90.7177L73.8711 90.7177C71.4784 100.015 63.038 106.885 52.9935 106.885 41.0881 106.885 31.4368 97.2341 31.4368 85.3285 31.4368 73.423 41.0881 63.7718 52.9935 63.7718 63.038 63.7718 71.4784 70.6421 73.8711 79.9394L86.0076 79.9394C88.4003 70.6421 96.8407 63.7718 106.885 63.7718 116.93 63.7718 125.37 70.6421 127.763 79.9394L136.303 79.9394C141.572 79.9394 146.068 76.1301 146.934 70.9332L147.82 65.6167C149.553 55.2228 158.546 47.6043 169.083 47.6043L193.791 47.6043C196.184 38.3071 204.624 31.4368 214.669 31.4368 226.574 31.4368 236.225 41.0879 236.225 52.9935 236.225 64.8991 226.574 74.5502 214.669 74.5502ZM214.669 63.7718C220.621 63.7718 225.447 58.9458 225.447 52.9935 225.447 47.0412 220.621 42.2152 214.669 42.2152 208.716 42.2152 203.89 47.0412 203.89 52.9935 203.89 58.9458 208.716 63.7718 214.669 63.7718ZM52.9935 96.1069C58.9458 96.1069 63.7718 91.2809 63.7718 85.3285 63.7718 79.3762 58.9458 74.5502 52.9935 74.5502 47.0408 74.5502 42.2152 79.3762 42.2152 85.3285 42.2152 91.2809 47.0408 96.1069 52.9935 96.1069ZM117.664 85.3285C117.664 91.2809 112.838 96.1069 106.885 96.1069 100.933 96.1069 96.1069 91.2809 96.1069 85.3285 96.1069 79.3762 100.933 74.5502 106.885 74.5502 112.838 74.5502 117.664 79.3762 117.664 85.3285ZM203.89 117.664C203.89 123.616 199.064 128.442 193.112 128.442 187.16 128.442 182.334 123.616 182.334 117.664 182.334 111.711 187.16 106.885 193.112 106.885 199.064 106.885 203.89 111.711 203.89 117.664Z" fill="#EA4B71" fill-rule="evenodd" fill-opacity="1" transform="matrix(1.002 0 0 1 363.603 116.273)"/><path d="M365.581 78.0415 365.581 77.5286C369.341 75.6451 373.102 72.3918 373.102 65.9715 373.102 56.7255 365.495 51.1612 354.983 51.1612 344.213 51.1612 336.521 57.0677 336.521 66.1422 336.521 72.3065 340.111 75.6451 344.043 77.5286L344.043 78.0415C339.684 79.5828 334.47 84.2058 334.47 91.9105 334.47 101.241 342.162 107.747 354.897 107.747 367.632 107.747 375.068 101.241 375.068 91.9105 375.068 84.2058 369.94 79.6681 365.581 78.0415ZM354.897 59.0375C359.171 59.0375 362.333 61.7761 362.333 66.3991 362.333 71.0221 359.085 73.7616 354.897 73.7616 350.709 73.7616 347.204 71.0221 347.204 66.3991 347.204 61.6907 350.539 59.0375 354.897 59.0375ZM354.897 99.529C349.939 99.529 345.923 96.3619 345.923 90.9683 345.923 86.0893 349.256 82.4076 354.811 82.4076 360.282 82.4076 363.615 86.0031 363.615 91.1398 363.615 96.3619 359.769 99.529 354.897 99.529Z" fill="#101330" fill-rule="evenodd" fill-opacity="1" transform="matrix(1.002 0 0 1 363.603 116.273)"/><path d="M388.254 106.891 399.194 106.891 399.194 83.692C399.194 76.0726 403.81 72.734 409.023 72.734 414.151 72.734 418.168 76.1589 418.168 83.1782L418.168 106.891 429.108 106.891 429.108 80.9525C429.108 69.7377 422.612 63.232 412.442 63.232 406.032 63.232 402.442 65.8 399.877 69.1386L399.194 69.1386 398.253 64.088 388.254 64.088 388.254 106.891Z" fill="#101330" fill-rule="nonzero" fill-opacity="1" transform="matrix(1.002 0 0 1 363.603 116.273)"/><path d="M291.41 106.891 280.47 106.891 280.47 64.088 290.47 64.088 291.41 69.1386 292.094 69.1386C294.658 65.8 298.248 63.232 304.659 63.232 314.829 63.232 321.325 69.7377 321.325 80.9525L321.325 106.891 310.385 106.891 310.385 83.1782C310.385 76.1589 306.368 72.734 301.239 72.734 296.026 72.734 291.41 76.0726 291.41 83.692L291.41 106.891Z" fill="#101330" fill-rule="nonzero" fill-opacity="1" transform="matrix(1.002 0 0 1 363.603 116.273)"/></g></g></g></g></svg>